<?xml version="1.0" encoding="utf-8"?>
<!DOCTYPE svg PUBLIC "-//W3C//DTD SVG 20010904//EN" "http://www.w3.org/TR/2001/REC-SVG-20010904/DTD/svg10.dtd">
<svg version="1.0" xmlns="http://www.w3.org/2000/svg" width="138px" height="60px" viewBox="0 0 138 60" preserveAspectRatio="xMidYMid meet">
 <g fill="#10B981">
  <path d="M114.65 59.81 c-4.89 -0.16 -9.59 -1.90 -13.43 -4.95 -1.04 -0.82 -3.06 -2.90 -3.80 -3.89 -0.71 -0.96 -1.22 -1.71 -1.22 -1.79 0 -0.04 -0.05 -0.13 -0.13 -0.20 -0.15 -0.16 -0.49 -0.78 -0.89 -1.60 -1.14 -2.33 -1.70 -4.04 -2.13 -6.56 -0.96 -5.73 0.46 -11.80 3.90 -16.65 3.53 -4.98 8.66 -8.17 14.83 -9.23 1.30 -0.23 1.67 -0.25 3.54 -0.25 1.86 0 2.24 0.03 3.50 0.25 1.85 0.32 2.97 0.63 4.96 1.37 0.43 0.15 1.90 0.86 2.44 1.16 2.71 1.54 5.17 3.64 7.02 6.02 1.98 2.56 3.52 5.89 4.20 9.08 0.61 2.90 0.62 6.56 0.01 9.36 -1.23 5.71 -4.64 10.74 -9.55 14.05 -2.42 1.63 -5.18 2.79 -8.04 3.37 -1.53 0.32 -3.72 0.50 -5.22 0.45z m3.54 -9.78 c0.57 -0.14 1.24 -0.34 1.50 -0.44 2.03 -0.82 2.95 -1.37 4.22 -2.49 2.20 -1.97 3.57 -4.31 4.22 -7.17 0.17 -0.77 0.20 -1.17 0.20 -2.68 -0.01 -1.96 -0.14 -2.78 -0.68 -4.33 -0.30 -0.86 -1.05 -2.43 -1.24 -2.59 -0.06 -0.05 -0.12 -0.14 -0.12 -0.18 0 -0.17 -1.06 -1.49 -1.79 -2.22 -0.96 -0.96 -2.08 -1.76 -3.39 -2.42 -1.83 -0.92 -3.65 -1.34 -5.77 -1.34 -2.09 0 -3.78 0.38 -5.63 1.28 -3.39 1.64 -5.86 4.56 -6.93 8.21 -0.66 2.26 -0.62 5.37 0.13 7.63 0.20 0.63 0.90 2.14 1.24 2.73 0.65 1.11 1.68 2.29 2.83 3.28 1.76 1.50 3.94 2.49 6.50 2.93 0.26 0.05 1.21 0.07 2.08 0.06 1.36 -0.02 1.74 -0.06 2.63 -0.27z"/>
  <path d="M4.04 59.53 c-0.60 -0.13 -1.24 -0.37 -1.71 -0.65 -0.65 -0.39 -1.45 -1.25 -1.78 -1.93 -0.55 -1.08 -0.51 0.59 -0.51 -26.16 0 -26.62 -0.03 -25.08 0.48 -26.12 0.23 -0.46 0.92 -1.34 1.24 -1.59 1.27 -0.96 2.70 -1.28 4.12 -0.93 1.74 0.45 3.03 1.72 3.47 3.42 0.18 0.71 0.18 0.95 0.18 22.59 l0 21.88 11.70 0.04 c12.93 0.04 12.11 -0.01 13.29 0.62 2.26 1.20 3.12 4.10 1.89 6.44 -0.32 0.61 -1.30 1.54 -1.99 1.88 -1.22 0.61 -0.21 0.57 -15.94 0.56 -7.84 -0.01 -14.35 -0.03 -14.45 -0.05z"/>
  <path d="M44.63 59.42 c-1.68 -0.45 -2.95 -1.74 -3.38 -3.43 -0.18 -0.70 -0.18 -1.03 -0.16 -19.24 0.03 -17.53 0.04 -18.56 0.19 -18.99 0.45 -1.28 1.26 -2.23 2.40 -2.83 1.50 -0.80 3.60 -0.63 5.02 0.41 0.36 0.26 1.18 1.12 1.18 1.23 0 0.04 0.10 0.22 0.21 0.41 0.12 0.18 0.29 0.63 0.39 0.97 0.16 0.62 0.17 1.19 0.17 19.03 0 17.72 -0.01 18.42 -0.17 19.03 -0.45 1.70 -1.80 3.01 -3.55 3.45 -0.71 0.18 -1.49 0.16 -2.30 -0.05z"/>
  <path d="M72.59 59.45 c-1.18 -0.31 -2.30 -1.08 -2.86 -1.99 -0.28 -0.46 -0.46 -0.85 -0.91 -2 -0.14 -0.35 -0.35 -0.86 -0.46 -1.14 -0.12 -0.27 -0.53 -1.30 -0.91 -2.27 -0.38 -0.97 -0.75 -1.89 -0.82 -2.04 -0.07 -0.15 -0.26 -0.65 -0.45 -1.11 -0.17 -0.45 -0.37 -0.96 -0.45 -1.14 -0.08 -0.16 -0.45 -1.10 -0.84 -2.07 -0.38 -0.97 -0.75 -1.89 -0.82 -2.04 -0.07 -0.15 -0.26 -0.65 -0.45 -1.11 -0.17 -0.45 -0.37 -0.96 -0.45 -1.14 -0.08 -0.16 -0.45 -1.10 -0.84 -2.07 -0.38 -0.97 -0.75 -1.89 -0.82 -2.04 -0.07 -0.15 -0.26 -0.65 -0.45 -1.11 -0.17 -0.45 -0.37 -0.96 -0.45 -1.14 -0.08 -0.16 -0.45 -1.10 -0.84 -2.07 -0.38 -0.97 -0.75 -1.89 -0.82 -2.04 -0.07 -0.15 -0.26 -0.65 -0.45 -1.11 -0.17 -0.45 -0.37 -0.96 -0.45 -1.14 -0.07 -0.16 -0.33 -0.79 -0.56 -1.39 -0.44 -1.14 -0.74 -1.89 -1.04 -2.59 -0.10 -0.23 -0.32 -0.78 -0.49 -1.24 -0.18 -0.45 -0.38 -0.96 -0.45 -1.14 -0.67 -1.55 -0.88 -2.31 -0.88 -3.21 0 -1.34 0.45 -2.41 1.42 -3.36 0.92 -0.91 1.99 -1.35 3.27 -1.35 1.98 0 3.82 1.24 4.51 3.03 0.08 0.23 0.40 1.03 0.70 1.77 1.61 4 1.63 4.05 1.80 4.53 0.07 0.19 0.31 0.78 0.53 1.32 0.22 0.53 0.59 1.45 0.83 2.05 0.24 0.60 0.53 1.32 0.64 1.59 0.12 0.27 0.40 0.99 0.64 1.59 0.24 0.60 0.52 1.32 0.63 1.59 0.12 0.27 0.33 0.79 0.46 1.14 0.14 0.35 0.32 0.82 0.41 1.04 0.09 0.23 0.37 0.92 0.62 1.54 0.25 0.63 0.59 1.46 0.74 1.86 0.40 1 0.81 2.03 0.95 2.41 0.34 0.87 0.79 1.96 0.85 2.03 0.07 0.07 0.17 -0.13 0.74 -1.57 0.20 -0.53 0.45 -1.15 0.55 -1.41 0.10 -0.25 0.27 -0.70 0.39 -1 0.34 -0.88 0.54 -1.37 1.12 -2.82 1.46 -3.64 1.51 -3.77 1.82 -4.56 0.10 -0.25 0.34 -0.84 0.55 -1.34 0.74 -1.84 1.50 -3.74 1.70 -4.27 0.22 -0.59 0.71 -1.84 0.90 -2.27 0.06 -0.15 0.35 -0.86 0.65 -1.59 0.28 -0.73 0.76 -1.93 1.06 -2.67 0.50 -1.26 0.99 -2.15 1.44 -2.61 0.69 -0.69 1.96 -1.27 3.08 -1.40 0.65 -0.07 1.77 0.15 2.49 0.52 0.53 0.26 1.78 1.36 1.78 1.55 0 0.05 0.06 0.16 0.14 0.25 0.07 0.08 0.25 0.45 0.38 0.83 0.21 0.56 0.25 0.82 0.25 1.58 0.01 0.94 -0.07 1.23 -0.74 2.91 -0.52 1.31 -1.35 3.38 -1.67 4.18 -0.21 0.50 -0.45 1.10 -0.55 1.34 -0.09 0.24 -0.25 0.62 -0.34 0.86 -0.10 0.24 -0.30 0.74 -0.45 1.11 -0.27 0.69 -0.56 1.42 -1.23 3.04 -0.20 0.50 -0.44 1.10 -0.54 1.34 -0.09 0.24 -0.25 0.62 -0.34 0.86 -0.10 0.24 -0.30 0.74 -0.45 1.11 -0.27 0.69 -0.56 1.42 -1.23 3.04 -0.20 0.50 -0.44 1.10 -0.54 1.34 -0.09 0.24 -0.25 0.62 -0.34 0.86 -0.10 0.24 -0.30 0.74 -0.45 1.11 -0.27 0.69 -0.56 1.42 -1.23 3.04 -0.20 0.50 -0.44 1.10 -0.54 1.34 -0.09 0.24 -0.25 0.62 -0.34 0.86 -0.10 0.24 -0.30 0.74 -0.45 1.11 -0.15 0.37 -0.40 1.01 -0.56 1.41 -0.15 0.40 -0.49 1.24 -0.74 1.86 -0.54 1.34 -0.77 1.94 -0.95 2.36 -0.08 0.17 -0.22 0.53 -0.31 0.77 -0.42 1.17 -0.88 2.17 -1.21 2.63 -0.23 0.32 -1.07 1.14 -1.17 1.14 -0.04 0 -0.22 0.10 -0.41 0.23 -0.45 0.29 -1.63 0.59 -2.33 0.58 -0.31 0 -0.78 -0.06 -1.05 -0.14z"/>
  <path d="M45.11 9.61 c-1.64 -0.19 -3.11 -1.18 -3.84 -2.59 -0.70 -1.36 -0.65 -3.23 0.15 -4.56 1.64 -2.76 5.80 -3.23 8.10 -0.93 1.11 1.11 1.60 2.59 1.35 4.05 -0.45 2.66 -2.88 4.35 -5.77 4.02z"/>
 </g>
 <g fill="#FBBF24">
  <path d="M96.85 9.54 c-1.48 -0.16 -2.93 -1.21 -3.58 -2.57 -0.43 -0.90 -0.51 -1.25 -0.51 -2.18 0 -2.21 1.45 -4.05 3.63 -4.62 0.73 -0.18 37.14 -0.19 37.84 -0.01 2.22 0.59 3.67 2.42 3.67 4.61 0 2.06 -1.18 3.78 -3.14 4.57 l-0.62 0.25 -18.35 0.01 c-10.09 0.01 -18.62 -0.02 -18.94 -0.05z"/>
 </g>
</svg>